<svg width="46" height="41" viewBox="0 0 46 41" fill="none" xmlns="http://www.w3.org/2000/svg">
<path d="M16.25 0.5L12.1325 5H5C2.525 5 0.5 7.025 0.5 9.5V36.5C0.5 38.975 2.525 41 5 41H41C43.475 41 45.5 38.975 45.5 36.5V9.5C45.5 7.025 43.475 5 41 5H33.8675L29.75 0.5H16.25ZM23 34.25C16.79 34.25 11.75 29.21 11.75 23C11.75 16.79 16.79 11.75 23 11.75C29.21 11.75 34.25 16.79 34.25 23C34.25 29.21 29.21 34.25 23 34.25Z" fill="#79C6EE"/>
<path d="M23 30.1998C26.9765 30.1998 30.2 26.9763 30.2 22.9998C30.2 19.0233 26.9765 15.7998 23 15.7998C19.0236 15.7998 15.8 19.0233 15.8 22.9998C15.8 26.9763 19.0236 30.1998 23 30.1998Z" fill="#79C6EE"/>
</svg>
